<svg width="512" height="316" viewBox="0 0 512 316" fill="none" xmlns="http://www.w3.org/2000/svg">
<g clip-path="url(#clip0_102_756)">
<rect width="512" height="316" fill="white"/>
<path d="M512 -25H0V316.333H512V-25Z" fill="#003399"/>
<path d="M256 12.9258L250.14 30.9606L259.158 33.8906L256 12.9258Z" fill="#FFCC00"/>
<path d="M256 12.9258L261.86 30.9606L252.842 33.8906L256 12.9258Z" fill="#FFCC00"/>
<path d="M274.035 26.0291H255.072V35.5105L274.035 26.0291Z" fill="#FFCC00"/>
<path d="M274.035 26.0291L258.693 37.1752L253.12 29.5045L274.035 26.0291Z" fill="#FFCC00"/>
<path d="M267.146 47.2302L261.286 29.1954L252.268 32.1253L267.146 47.2302Z" fill="#FFCC00"/>
<path d="M267.146 47.2302L251.804 36.0841L257.377 28.4134L267.146 47.2302Z" fill="#FFCC00"/>
<path d="M237.965 26.0291H256.928V35.5105L237.965 26.0291Z" fill="#FFCC00"/>
<path d="M237.965 26.0291L253.307 37.1752L258.88 29.5045L237.965 26.0291Z" fill="#FFCC00"/>
<path d="M244.854 47.2302L250.714 29.1954L259.732 32.1253L244.854 47.2302Z" fill="#FFCC00"/>
<path d="M244.854 47.2302L260.196 36.0841L254.623 28.4134L244.854 47.2302Z" fill="#FFCC00"/>
<path d="M256 240.481L250.14 258.516L259.158 261.446L256 240.481Z" fill="#FFCC00"/>
<path d="M256 240.481L261.86 258.516L252.842 261.446L256 240.481Z" fill="#FFCC00"/>
<path d="M274.035 253.584H255.072V263.066L274.035 253.584Z" fill="#FFCC00"/>
<path d="M274.035 253.584L258.693 264.731L253.12 257.06L274.035 253.584Z" fill="#FFCC00"/>
<path d="M267.146 274.786L261.286 256.751L252.268 259.681L267.146 274.786Z" fill="#FFCC00"/>
<path d="M267.146 274.786L251.804 263.639L257.377 255.969L267.146 274.786Z" fill="#FFCC00"/>
<path d="M237.965 253.584H256.928V263.066L237.965 253.584Z" fill="#FFCC00"/>
<path d="M237.965 253.584L253.307 264.731L258.88 257.06L237.965 253.584Z" fill="#FFCC00"/>
<path d="M244.854 274.786L250.714 256.751L259.732 259.681L244.854 274.786Z" fill="#FFCC00"/>
<path d="M244.854 274.786L260.196 263.639L254.623 255.969L244.854 274.786Z" fill="#FFCC00"/>
<path d="M142.222 126.704L136.362 144.739L145.38 147.669L142.222 126.704Z" fill="#FFCC00"/>
<path d="M142.222 126.704L148.082 144.739L139.065 147.669L142.222 126.704Z" fill="#FFCC00"/>
<path d="M160.257 139.807H141.294V149.288L160.257 139.807Z" fill="#FFCC00"/>
<path d="M160.257 139.807L144.915 150.953L139.342 143.282L160.257 139.807Z" fill="#FFCC00"/>
<path d="M153.368 161.008L147.508 142.973L138.491 145.903L153.368 161.008Z" fill="#FFCC00"/>
<path d="M153.368 161.008L138.027 149.862L143.6 142.191L153.368 161.008Z" fill="#FFCC00"/>
<path d="M124.188 139.807H143.15V149.288L124.188 139.807Z" fill="#FFCC00"/>
<path d="M124.188 139.807L139.529 150.953L145.102 143.282L124.188 139.807Z" fill="#FFCC00"/>
<path d="M131.076 161.008L136.936 142.973L145.953 145.903L131.076 161.008Z" fill="#FFCC00"/>
<path d="M131.076 161.008L146.418 149.862L140.844 142.191L131.076 161.008Z" fill="#FFCC00"/>
<path d="M187.965 62.4736L203.306 51.3275L197.733 43.6568L187.965 62.4736Z" fill="#FFCC00"/>
<path d="M187.965 62.4736L193.825 44.4388L202.842 47.3687L187.965 62.4736Z" fill="#FFCC00"/>
<path d="M181.076 41.2725L196.418 52.4186L201.991 44.7479L181.076 41.2725Z" fill="#FFCC00"/>
<path d="M181.076 41.2725H200.039V50.7539L181.076 41.2725Z" fill="#FFCC00"/>
<path d="M199.111 28.1692L193.251 46.204L202.269 49.134L199.111 28.1692Z" fill="#FFCC00"/>
<path d="M199.111 28.1692L204.971 46.204L195.954 49.134L199.111 28.1692Z" fill="#FFCC00"/>
<path d="M210.257 62.4739L194.916 51.3277L200.489 43.657L210.257 62.4739Z" fill="#FFCC00"/>
<path d="M210.257 62.4739L204.397 44.439L195.38 47.369L210.257 62.4739Z" fill="#FFCC00"/>
<path d="M217.146 41.2725L201.805 52.4186L196.232 44.7479L217.146 41.2725Z" fill="#FFCC00"/>
<path d="M217.146 41.2725H198.183V50.7539L217.146 41.2725Z" fill="#FFCC00"/>
<path d="M168.611 104.119L162.751 86.0843L153.734 89.0142L168.611 104.119Z" fill="#FFCC00"/>
<path d="M168.611 104.119L153.27 92.973L158.843 85.3023L168.611 104.119Z" fill="#FFCC00"/>
<path d="M146.319 104.119L161.66 92.9732L156.087 85.3026L146.319 104.119Z" fill="#FFCC00"/>
<path d="M146.319 104.119L152.179 86.0845L161.196 89.0145L146.319 104.119Z" fill="#FFCC00"/>
<path d="M139.43 82.9182L154.771 94.0644L160.344 86.3937L139.43 82.9182Z" fill="#FFCC00"/>
<path d="M139.43 82.9182H158.393V92.3997L139.43 82.9182Z" fill="#FFCC00"/>
<path d="M175.5 82.918L160.159 94.0641L154.586 86.3934L175.5 82.918Z" fill="#FFCC00"/>
<path d="M175.5 82.918H156.538V92.3994L175.5 82.918Z" fill="#FFCC00"/>
<path d="M157.465 69.8147L163.325 87.8495L154.308 90.7795L157.465 69.8147Z" fill="#FFCC00"/>
<path d="M157.465 69.8147L151.605 87.8495L160.623 90.7795L157.465 69.8147Z" fill="#FFCC00"/>
<path d="M175.5 196.696H156.538V206.177L175.5 196.696Z" fill="#FFCC00"/>
<path d="M175.5 196.696L160.159 207.842L154.586 200.171L175.5 196.696Z" fill="#FFCC00"/>
<path d="M168.612 217.897L162.752 199.862L153.735 202.792L168.612 217.897Z" fill="#FFCC00"/>
<path d="M168.612 217.897L153.27 206.751L158.844 199.08L168.612 217.897Z" fill="#FFCC00"/>
<path d="M146.319 217.897L161.661 206.751L156.088 199.08L146.319 217.897Z" fill="#FFCC00"/>
<path d="M146.319 217.897L152.179 199.862L161.197 202.792L146.319 217.897Z" fill="#FFCC00"/>
<path d="M157.465 183.593L163.325 201.627L154.308 204.557L157.465 183.593Z" fill="#FFCC00"/>
<path d="M157.465 183.593L151.605 201.627L160.623 204.557L157.465 183.593Z" fill="#FFCC00"/>
<path d="M139.431 196.696H158.394V206.177L139.431 196.696Z" fill="#FFCC00"/>
<path d="M139.431 196.696L154.772 207.842L160.345 200.171L139.431 196.696Z" fill="#FFCC00"/>
<path d="M217.145 238.341H198.182V247.823L217.145 238.341Z" fill="#FFCC00"/>
<path d="M217.145 238.341L201.804 249.487L196.231 241.817L217.145 238.341Z" fill="#FFCC00"/>
<path d="M210.257 259.542L204.397 241.508L195.38 244.438L210.257 259.542Z" fill="#FFCC00"/>
<path d="M210.257 259.542L194.915 248.396L200.489 240.726L210.257 259.542Z" fill="#FFCC00"/>
<path d="M187.964 259.542L203.306 248.396L197.733 240.726L187.964 259.542Z" fill="#FFCC00"/>
<path d="M187.964 259.542L193.824 241.508L202.842 244.438L187.964 259.542Z" fill="#FFCC00"/>
<path d="M199.111 225.238L204.971 243.273L195.953 246.203L199.111 225.238Z" fill="#FFCC00"/>
<path d="M199.111 225.238L193.251 243.273L202.268 246.203L199.111 225.238Z" fill="#FFCC00"/>
<path d="M181.076 238.341H200.039V247.823L181.076 238.341Z" fill="#FFCC00"/>
<path d="M181.076 238.341L196.417 249.487L201.99 241.817L181.076 238.341Z" fill="#FFCC00"/>
<path d="M369.778 126.704L375.638 144.738L366.62 147.668L369.778 126.704Z" fill="#FFCC00"/>
<path d="M369.778 126.704L363.918 144.738L372.935 147.668L369.778 126.704Z" fill="#FFCC00"/>
<path d="M351.743 139.807H370.706V149.288L351.743 139.807Z" fill="#FFCC00"/>
<path d="M351.743 139.807L367.085 150.953L372.658 143.282L351.743 139.807Z" fill="#FFCC00"/>
<path d="M358.632 161.008L364.492 142.973L373.509 145.903L358.632 161.008Z" fill="#FFCC00"/>
<path d="M358.632 161.008L373.973 149.862L368.4 142.191L358.632 161.008Z" fill="#FFCC00"/>
<path d="M387.812 139.807H368.849V149.288L387.812 139.807Z" fill="#FFCC00"/>
<path d="M387.812 139.807L372.47 150.953L366.897 143.282L387.812 139.807Z" fill="#FFCC00"/>
<path d="M380.924 161.008L375.064 142.973L366.047 145.903L380.924 161.008Z" fill="#FFCC00"/>
<path d="M380.924 161.008L365.582 149.862L371.156 142.191L380.924 161.008Z" fill="#FFCC00"/>
<path d="M324.035 62.4736L308.694 51.3275L314.267 43.6568L324.035 62.4736Z" fill="#FFCC00"/>
<path d="M324.035 62.4736L318.175 44.4388L309.158 47.3687L324.035 62.4736Z" fill="#FFCC00"/>
<path d="M330.924 41.2722L315.582 52.4184L310.009 44.7477L330.924 41.2722Z" fill="#FFCC00"/>
<path d="M330.924 41.2722H311.961V50.7537L330.924 41.2722Z" fill="#FFCC00"/>
<path d="M312.889 28.1692L318.749 46.204L309.731 49.134L312.889 28.1692Z" fill="#FFCC00"/>
<path d="M312.889 28.1692L307.029 46.204L316.046 49.134L312.889 28.1692Z" fill="#FFCC00"/>
<path d="M301.742 62.4739L317.084 51.3277L311.51 43.657L301.742 62.4739Z" fill="#FFCC00"/>
<path d="M301.742 62.4739L307.602 44.439L316.619 47.369L301.742 62.4739Z" fill="#FFCC00"/>
<path d="M294.854 41.2725L310.195 52.4186L315.768 44.7479L294.854 41.2725Z" fill="#FFCC00"/>
<path d="M294.854 41.2725H313.817V50.7539L294.854 41.2725Z" fill="#FFCC00"/>
<path d="M343.388 104.119L349.248 86.0845L358.265 89.0145L343.388 104.119Z" fill="#FFCC00"/>
<path d="M343.388 104.119L358.73 92.9732L353.156 85.3026L343.388 104.119Z" fill="#FFCC00"/>
<path d="M365.681 104.119L350.339 92.973L355.912 85.3023L365.681 104.119Z" fill="#FFCC00"/>
<path d="M365.681 104.119L359.821 86.0843L350.803 89.0142L365.681 104.119Z" fill="#FFCC00"/>
<path d="M372.569 82.918L357.227 94.0641L351.654 86.3934L372.569 82.918Z" fill="#FFCC00"/>
<path d="M372.569 82.918H353.606V92.3994L372.569 82.918Z" fill="#FFCC00"/>
<path d="M336.499 82.9182L351.84 94.0644L357.413 86.3937L336.499 82.9182Z" fill="#FFCC00"/>
<path d="M336.499 82.9182H355.462V92.3997L336.499 82.9182Z" fill="#FFCC00"/>
<path d="M354.534 69.8149L348.674 87.8498L357.691 90.7797L354.534 69.8149Z" fill="#FFCC00"/>
<path d="M354.534 69.8149L360.394 87.8498L351.376 90.7797L354.534 69.8149Z" fill="#FFCC00"/>
<path d="M336.5 196.696H355.462V206.177L336.5 196.696Z" fill="#FFCC00"/>
<path d="M336.5 196.696L351.841 207.842L357.414 200.171L336.5 196.696Z" fill="#FFCC00"/>
<path d="M343.388 217.897L349.248 199.862L358.265 202.792L343.388 217.897Z" fill="#FFCC00"/>
<path d="M343.388 217.897L358.73 206.751L353.156 199.08L343.388 217.897Z" fill="#FFCC00"/>
<path d="M365.681 217.897L350.339 206.751L355.912 199.08L365.681 217.897Z" fill="#FFCC00"/>
<path d="M365.681 217.897L359.821 199.862L350.803 202.792L365.681 217.897Z" fill="#FFCC00"/>
<path d="M354.534 183.593L348.674 201.627L357.692 204.557L354.534 183.593Z" fill="#FFCC00"/>
<path d="M354.534 183.593L360.394 201.627L351.377 204.557L354.534 183.593Z" fill="#FFCC00"/>
<path d="M372.569 196.696H353.606V206.177L372.569 196.696Z" fill="#FFCC00"/>
<path d="M372.569 196.696L357.227 207.842L351.654 200.171L372.569 196.696Z" fill="#FFCC00"/>
<path d="M294.854 238.341H313.817V247.823L294.854 238.341Z" fill="#FFCC00"/>
<path d="M294.854 238.341L310.196 249.487L315.769 241.817L294.854 238.341Z" fill="#FFCC00"/>
<path d="M301.743 259.542L307.603 241.508L316.62 244.438L301.743 259.542Z" fill="#FFCC00"/>
<path d="M301.743 259.542L317.084 248.396L311.511 240.726L301.743 259.542Z" fill="#FFCC00"/>
<path d="M324.035 259.542L308.694 248.396L314.267 240.726L324.035 259.542Z" fill="#FFCC00"/>
<path d="M324.035 259.542L318.175 241.508L309.158 244.438L324.035 259.542Z" fill="#FFCC00"/>
<path d="M312.889 225.238L307.029 243.273L316.046 246.203L312.889 225.238Z" fill="#FFCC00"/>
<path d="M312.889 225.238L318.749 243.273L309.731 246.203L312.889 225.238Z" fill="#FFCC00"/>
<path d="M330.924 238.341H311.961V247.823L330.924 238.341Z" fill="#FFCC00"/>
<path d="M330.924 238.341L315.582 249.487L310.009 241.817L330.924 238.341Z" fill="#FFCC00"/>
</g>
<defs>
<clipPath id="clip0_102_756">
<rect width="512" height="316" fill="white"/>
</clipPath>
</defs>
</svg>
