<svg width="512" height="316" viewBox="0 0 512 316" fill="none" xmlns="http://www.w3.org/2000/svg">
<g clip-path="url(#clip0_102_380)">
<rect width="512" height="316" fill="white"/>
<path fill-rule="evenodd" clip-rule="evenodd" d="M0 0H600.4V24.3077H0V0ZM0 48.6154H600.4V72.9231H0V48.6154ZM0 97.2308H600.4V121.538H0V97.2308ZM0 145.846H600.4V170.154H0V145.846ZM0 194.462H600.4V218.769H0V194.462ZM0 243.077H600.4V267.385H0V243.077ZM0 291.692H600.4V316H0V291.692Z" fill="#BD3D44"/>
<path fill-rule="evenodd" clip-rule="evenodd" d="M0 24.3076H600.4V48.6153H0V24.3076ZM0 72.923H600.4V97.2307H0V72.923ZM0 121.538H600.4V145.846H0V121.538ZM0 170.154H600.4V194.461H0V170.154ZM0 218.769H600.4V243.077H0V218.769ZM0 267.385H600.4V291.692H0V267.385Z" fill="white"/>
<path fill-rule="evenodd" clip-rule="evenodd" d="M0 0H240.16V170.154H0V0Z" fill="#192F5D"/>
<path fill-rule="evenodd" clip-rule="evenodd" d="M19.9323 7.29224L22.3631 14.0984H29.1692L23.5785 18.2307L25.7662 24.7938L19.9323 20.6615L14.5846 24.7938L16.7723 18.2307L10.9385 14.0984H18.2308L19.9323 7.29224ZM60.04 7.29224L62.2277 14.0984H69.2769L63.4431 18.2307L65.8739 24.7938L60.04 20.6615L54.2062 24.7938L56.6369 18.2307L50.8031 14.0984H57.8523L60.04 7.29224ZM100.148 7.29224L102.335 14.0984H109.385L103.551 18.2307L105.982 24.7938L100.148 20.6615L94.3139 24.7938L96.7446 18.2307L90.9108 14.0984H97.96L100.148 7.29224ZM140.012 7.29224L142.443 14.0984H149.249L143.658 18.2307L145.846 24.7938L140.012 20.6615L134.422 24.7938L136.609 18.2307L130.775 14.0984H138.068L140.012 7.29224ZM180.12 7.29224L182.308 14.0984H189.357L183.523 18.2307L185.954 24.7938L179.877 20.6615L174.286 24.7938L176.474 18.2307L170.64 14.0984H177.689L180.12 7.29224ZM220.228 7.29224L222.415 14.0984H229.465L223.631 18.2307L226.062 24.7938L220.228 20.6615L214.394 24.7938L216.825 18.2307L210.991 14.0984H218.04L220.228 7.29224ZM40.1077 24.3076L42.2954 31.1138H49.3446L43.5108 35.2461L45.9416 41.8092L40.1077 37.6769L34.2739 41.8092L36.7046 35.2461L30.8708 31.1138H37.92L40.1077 24.3076ZM79.9723 24.3076L82.4031 31.1138H89.2093L83.6185 35.2461L85.8062 41.8092L79.9723 37.6769L74.3816 41.8092L76.5693 35.2461L70.7354 31.1138H78.0277L79.9723 24.3076ZM120.08 24.3076L122.268 31.1138H129.317L123.483 35.2461L125.914 41.8092L120.08 37.6769L114.246 41.8092L116.677 35.2461L110.843 31.1138H117.892L120.08 24.3076ZM160.188 24.3076L162.375 31.1138H169.425L163.591 35.2461L166.022 41.8092L160.188 37.6769L154.354 41.8092L156.785 35.2461L150.951 31.1138H158L160.188 24.3076ZM200.052 24.3076L202.483 31.1138H209.046L203.455 35.2461L205.643 41.8092L199.809 37.6769L194.218 41.8092L196.406 35.2461L190.572 31.1138H197.865L200.052 24.3076ZM20.1754 41.323L22.12 48.1292H29.4123L23.5785 52.2615L25.7662 58.8245L19.9323 54.6922L14.5846 58.8245L16.7723 52.2615L10.9385 48.1292H18.2308L20.1754 41.323ZM60.04 41.323L62.2277 48.1292H69.2769L63.6862 52.2615L65.8739 58.8245L60.04 54.6922L54.4492 58.8245L56.6369 52.2615L50.8031 48.1292H57.8523L60.04 41.323ZM100.148 41.323L102.335 48.1292H109.385L103.551 52.2615L105.982 58.8245L100.148 54.6922L94.3139 58.8245L96.7446 52.2615L90.9108 48.1292H97.96L100.148 41.323ZM140.012 41.323L142.443 48.1292H149.249L143.658 52.2615L145.846 58.8245L140.012 54.6922L134.422 58.8245L136.609 52.2615L130.775 48.1292H138.068L140.012 41.323ZM180.12 41.323L182.308 48.1292H189.357L183.766 52.2615L185.954 58.8245L180.12 54.6922L174.529 58.8245L176.717 52.2615L170.883 48.1292H177.932L180.12 41.323ZM220.228 41.323L222.415 48.1292H229.465L223.631 52.2615L226.062 58.8245L220.228 54.6922L214.394 58.8245L216.825 52.2615L210.991 48.1292H218.04L220.228 41.323ZM40.1077 58.3384L42.2954 65.1445H49.3446L43.5108 69.2769L45.9416 75.8399L40.1077 71.7076L34.2739 75.8399L36.7046 69.2769L30.8708 65.1445H37.92L40.1077 58.3384ZM79.9723 58.3384L82.4031 65.1445H89.2093L83.6185 69.2769L85.8062 75.8399L79.9723 71.7076L74.3816 75.8399L76.5693 69.2769L70.7354 65.1445H78.0277L79.9723 58.3384ZM120.08 58.3384L122.268 65.1445H129.317L123.726 69.2769L125.914 75.8399L120.08 71.7076L114.489 75.8399L116.677 69.2769L110.843 65.1445H117.892L120.08 58.3384ZM160.188 58.3384L162.375 65.1445H169.425L163.591 69.2769L166.022 75.8399L160.188 71.7076L154.354 75.8399L156.785 69.2769L150.951 65.1445H158L160.188 58.3384ZM200.052 58.3384L202.483 65.1445H209.046L203.455 69.2769L205.643 75.8399L199.809 71.7076L194.218 75.8399L196.406 69.2769L190.572 65.1445H197.865L200.052 58.3384ZM20.1754 75.3538L22.12 82.1599H29.4123L23.5785 86.2922L25.7662 92.8553L19.9323 88.723L14.5846 92.8553L16.7723 86.2922L10.9385 82.1599H18.2308L20.1754 75.3538ZM60.04 75.3538L62.2277 82.1599H69.2769L63.6862 86.2922L65.8739 92.8553L60.04 88.723L54.4492 92.8553L56.6369 86.2922L50.8031 82.1599H57.8523L60.04 75.3538ZM100.148 75.3538L102.335 82.1599H109.385L103.551 86.2922L105.982 92.8553L100.148 88.723L94.3139 92.8553L96.7446 86.2922L90.9108 82.1599H97.96L100.148 75.3538ZM140.012 75.3538L142.443 82.1599H149.249L143.658 86.2922L145.846 92.8553L140.012 88.723L134.422 92.8553L136.609 86.2922L130.775 82.1599H138.068L140.012 75.3538ZM180.12 75.3538L182.308 82.1599H189.357L183.766 86.2922L185.954 92.8553L180.12 88.723L174.529 92.8553L176.717 86.2922L170.883 82.1599H177.932L180.12 75.3538ZM220.228 75.3538L222.415 82.1599H229.465L223.631 86.2922L226.062 92.8553L220.228 88.723L214.394 92.8553L216.825 86.2922L210.991 82.1599H218.04L220.228 75.3538ZM40.1077 92.3692L42.2954 99.1753H49.3446L43.5108 103.308L45.9416 109.871L40.1077 105.738L34.2739 109.871L36.7046 103.308L30.8708 99.1753H37.92L40.1077 92.3692ZM79.9723 92.3692L82.4031 99.1753H89.2093L83.6185 103.308L85.8062 109.871L79.9723 105.738L74.3816 109.871L76.5693 103.308L70.7354 99.1753H78.0277L79.9723 92.3692ZM120.08 92.3692L122.268 99.1753H129.317L123.726 103.308L125.914 109.871L120.08 105.738L114.489 109.871L116.677 103.308L110.843 99.1753H117.892L120.08 92.3692ZM160.188 92.3692L162.375 99.1753H169.425L163.591 103.308L166.022 109.871L160.188 105.738L154.354 109.871L156.785 103.308L150.951 99.1753H158L160.188 92.3692ZM200.052 92.3692L202.483 99.1753H209.046L203.455 103.308L205.643 109.871L199.809 105.738L194.218 109.871L196.406 103.308L190.572 99.1753H197.865L200.052 92.3692ZM20.1754 109.385L22.12 116.191H29.4123L23.5785 120.323L25.7662 126.886L19.9323 122.754L14.5846 126.886L16.7723 120.323L10.9385 116.191H18.2308L20.1754 109.385ZM60.04 109.385L62.2277 116.191H69.2769L63.6862 120.323L65.8739 126.886L60.04 122.754L54.4492 126.886L56.6369 120.323L50.8031 116.191H57.8523L60.04 109.385ZM100.148 109.385L102.335 116.191H109.385L103.551 120.323L105.982 126.886L100.148 122.754L94.3139 126.886L96.7446 120.323L90.9108 116.191H97.96L100.148 109.385ZM140.012 109.385L142.443 116.191H149.249L143.658 120.323L145.846 126.886L140.012 122.754L134.422 126.886L136.609 120.323L130.775 116.191H138.068L140.012 109.385ZM180.12 109.385L182.308 116.191H189.357L183.766 120.323L185.954 126.886L180.12 122.754L174.529 126.886L176.717 120.323L170.883 116.191H177.932L180.12 109.385ZM220.228 109.385L222.415 116.191H229.465L223.631 120.323L226.062 126.886L220.228 122.754L214.394 126.886L216.825 120.323L210.991 116.191H218.04L220.228 109.385ZM40.1077 126.4L42.2954 133.206H49.3446L43.5108 137.338L45.9416 143.901L40.1077 139.769L34.2739 143.901L36.7046 137.338L30.8708 133.206H37.92L40.1077 126.4ZM79.9723 126.4L82.4031 133.206H89.2093L83.6185 137.338L85.8062 143.901L79.9723 139.769L74.3816 143.901L76.5693 137.338L70.7354 133.206H78.0277L79.9723 126.4ZM120.08 126.4L122.268 133.206H129.317L123.726 137.338L125.914 143.901L120.08 139.769L114.489 143.901L116.677 137.338L110.843 133.206H117.892L120.08 126.4ZM160.188 126.4L162.375 133.206H169.425L163.591 137.338L166.022 143.901L160.188 139.769L154.354 143.901L156.785 137.338L150.951 133.206H158L160.188 126.4ZM200.052 126.4L202.483 133.206H209.046L203.455 137.338L205.643 143.901L199.809 139.769L194.218 143.901L196.406 137.338L190.572 133.206H197.865L200.052 126.4ZM20.1754 143.415L22.12 150.221H29.4123L23.5785 154.354L25.7662 160.917L19.9323 156.785L14.5846 160.917L16.7723 154.354L10.9385 150.221H18.2308L20.1754 143.415ZM60.04 143.415L62.2277 150.221H69.2769L63.6862 154.354L65.8739 160.917L60.04 156.785L54.4492 160.917L56.6369 154.354L50.8031 150.221H57.8523L60.04 143.415ZM100.148 143.415L102.335 150.221H109.385L103.551 154.354L105.982 160.917L100.148 156.785L94.3139 160.917L96.7446 154.354L90.9108 150.221H97.96L100.148 143.415ZM140.012 143.415L142.443 150.221H149.249L143.658 154.354L145.846 160.917L140.012 156.785L134.422 160.917L136.609 154.354L130.775 150.221H138.068L140.012 143.415ZM180.12 143.415L182.308 150.221H189.357L183.766 154.354L185.954 160.917L180.12 156.785L174.529 160.917L176.717 154.354L170.883 150.221H177.932L180.12 143.415ZM220.228 143.415L222.415 150.221H229.465L223.631 154.354L226.062 160.917L220.228 156.785L214.394 160.917L216.825 154.354L210.991 150.221H218.04L220.228 143.415Z" fill="white"/>
</g>
<defs>
<clipPath id="clip0_102_380">
<rect width="512" height="316" fill="white"/>
</clipPath>
</defs>
</svg>
